<?xml version="1.0" encoding="UTF-8"?>
<svg xmlns="http://www.w3.org/2000/svg" viewBox="165 0 795 400" role="img" aria-label="VibeStat-Text 화면 미리보기">
  <defs>
    <linearGradient id="bg" x1="0" y1="0" x2="0" y2="1">
      <stop offset="0%" stop-color="#252528"/>
      <stop offset="100%" stop-color="#1e1e1e"/>
    </linearGradient>
    <linearGradient id="canvas" x1="0" y1="0" x2="1" y2="1">
      <stop offset="0%" stop-color="#0078d4" stop-opacity="0.14"/>
      <stop offset="100%" stop-color="#000000" stop-opacity="0.22"/>
    </linearGradient>
  </defs>
  <rect x="165" y="0" width="795" height="400" rx="6" fill="url(#bg)" stroke="#3c3c3c"/>
  <rect x="165" y="0" width="795" height="42" fill="#252528"/>
  <line x1="165" y1="42" x2="960" y2="42" stroke="#3c3c3c"/>
  <rect x="179" y="11" width="88" height="22" rx="4" fill="#3b9eff" fill-opacity="0.14" stroke="#3b9eff" stroke-opacity="0.28"/>
  <text x="190" y="26" fill="#9ecfff" font-family="Segoe UI,sans-serif" font-size="12" font-weight="600">VibeStat-Text</text>
  <text x="278" y="26" fill="#ececec" font-family="Segoe UI,sans-serif" font-size="13">VibeStatics Text Mining</text>
  <rect x="792" y="8" width="158" height="28" rx="14" fill="rgba(180,120,20,0.5)" stroke="rgba(255,200,80,0.5)"/>
  <text x="871" y="27" text-anchor="middle" fill="#ffe8a3" font-family="Segoe UI,sans-serif" font-size="13" font-weight="700">시범판 ~2026.08.31</text>
  <rect x="165" y="42" width="148" height="358" fill="#252526"/>
  <line x1="313" y1="42" x2="313" y2="400" stroke="#3c3c3c"/>
  <text x="182" y="72" fill="#8a8a8a" font-family="Segoe UI,sans-serif" font-size="11" font-weight="600">작업공간</text>
  <text x="182" y="98" fill="#d4d4d4" font-family="Segoe UI,sans-serif" font-size="11">data/</text>
  <text x="182" y="118" fill="#8a8a8a" font-family="Segoe UI,sans-serif" font-size="10">.vibestat/output/</text>
  <rect x="313" y="42" width="647" height="358" fill="#1e1e1e"/>
  <rect x="313" y="42" width="647" height="358" fill="url(#canvas)"/>
  <text x="636" y="118" text-anchor="middle" fill="#ececec" font-family="Segoe UI,sans-serif" font-size="26" font-weight="700">텍스트 데이터 적재</text>
  <text x="636" y="148" text-anchor="middle" fill="#8a8a8a" font-family="Segoe UI,sans-serif" font-size="14">분석 파일을 끌어다 놓으세요</text>
  <rect x="468" y="168" width="168" height="42" rx="5" fill="#3b9eff"/>
  <text x="552" y="195" text-anchor="middle" fill="#fff" font-family="Segoe UI,sans-serif" font-size="14" font-weight="600">쇼케이스 데모</text>
  <rect x="648" y="168" width="168" height="42" rx="5" fill="#2d2d30" stroke="#3c3c3c"/>
  <text x="732" y="195" text-anchor="middle" fill="#d4d4d4" font-family="Segoe UI,sans-serif" font-size="14">자료 확인하기</text>
  <text x="636" y="238" text-anchor="middle" fill="#8a8a8a" font-family="Segoe UI,sans-serif" font-size="12">.txt · .csv · .xlsx · .pdf · .hwp</text>
  <ellipse cx="636" cy="320" rx="200" ry="72" fill="none" stroke="#3c3c3c" stroke-dasharray="5 5"/>
  <text x="560" y="305" fill="#5aadff" font-family="Segoe UI,sans-serif" font-size="28" font-weight="700">워드</text>
  <text x="650" y="332" fill="#4ec9b0" font-family="Segoe UI,sans-serif" font-size="24" font-weight="600">클라우드</text>
  <text x="598" y="365" fill="#9ecfff" font-family="Segoe UI,sans-serif" font-size="26" font-weight="600">LDA</text>
</svg>
