<?xml version="1.0" encoding="UTF-8"?>
<svg xmlns="http://www.w3.org/2000/svg" viewBox="0 0 960 540" role="img" aria-label="VibeStat-Text 화면 미리보기">
  <defs>
    <linearGradient id="bg" x1="0" y1="0" x2="0" y2="1">
      <stop offset="0%" stop-color="#252528"/>
      <stop offset="100%" stop-color="#1e1e1e"/>
    </linearGradient>
    <linearGradient id="canvas" x1="0" y1="0" x2="1" y2="1">
      <stop offset="0%" stop-color="#0078d4" stop-opacity="0.12"/>
      <stop offset="100%" stop-color="#000000" stop-opacity="0.2"/>
    </linearGradient>
  </defs>
  <rect width="960" height="540" rx="8" fill="url(#bg)" stroke="#3c3c3c"/>
  <rect width="960" height="38" fill="#252528"/>
  <line x1="0" y1="38" x2="960" y2="38" stroke="#3c3c3c"/>
  <rect x="14" y="10" width="72" height="18" rx="3" fill="#3b9eff" fill-opacity="0.14" stroke="#3b9eff" stroke-opacity="0.28"/>
  <text x="22" y="22" fill="#9ecfff" font-family="Segoe UI,sans-serif" font-size="9" font-weight="600">VibeStat-Text</text>
  <text x="98" y="22" fill="#ececec" font-family="Segoe UI,sans-serif" font-size="10">VibeStatics Text Mining</text>
  <rect x="820" y="10" width="126" height="18" rx="9" fill="rgba(180,120,20,0.45)" stroke="rgba(255,200,80,0.45)"/>
  <text x="883" y="22" text-anchor="middle" fill="#ffe8a3" font-family="Segoe UI,sans-serif" font-size="8" font-weight="700">시범판 ~2026.08.31</text>
  <rect x="0" y="38" width="170" height="502" fill="#252526"/>
  <line x1="170" y1="38" x2="170" y2="540" stroke="#3c3c3c"/>
  <text x="14" y="62" fill="#8a8a8a" font-family="Segoe UI,sans-serif" font-size="8" font-weight="600">작업공간</text>
  <text x="14" y="87" fill="#d4d4d4" font-family="Segoe UI,sans-serif" font-size="8">data/</text>
  <text x="14" y="105" fill="#8a8a8a" font-family="Segoe UI,sans-serif" font-size="8">.vibestat/output/</text>
  <rect x="170" y="38" width="790" height="502" fill="#1e1e1e"/>
  <rect x="170" y="38" width="790" height="502" fill="url(#canvas)"/>
  <text x="480" y="168" text-anchor="middle" fill="#ececec" font-family="Segoe UI,sans-serif" font-size="19" font-weight="700">텍스트 데이터 적재</text>
  <text x="480" y="194" text-anchor="middle" fill="#8a8a8a" font-family="Segoe UI,sans-serif" font-size="11">분석 파일을 끌어다 놓으세요</text>
  <rect x="330" y="214" width="140" height="34" rx="4" fill="#3b9eff"/>
  <text x="400" y="236" text-anchor="middle" fill="#fff" font-family="Segoe UI,sans-serif" font-size="11" font-weight="600">쇼케이스 데모</text>
  <rect x="490" y="214" width="140" height="34" rx="4" fill="#2d2d30" stroke="#3c3c3c"/>
  <text x="560" y="236" text-anchor="middle" fill="#d4d4d4" font-family="Segoe UI,sans-serif" font-size="11">자료 확인하기</text>
  <text x="480" y="272" text-anchor="middle" fill="#8a8a8a" font-family="Segoe UI,sans-serif" font-size="10">.txt · .csv · .xlsx · .pdf · .hwp</text>
  <ellipse cx="480" cy="375" rx="185" ry="98" fill="none" stroke="#3c3c3c" stroke-dasharray="4 4"/>
  <text x="410" y="345" fill="#5aadff" font-family="Segoe UI,sans-serif" font-size="22" font-weight="700">워드</text>
  <text x="490" y="370" fill="#4ec9b0" font-family="Segoe UI,sans-serif" font-size="18" font-weight="600">클라우드</text>
  <text x="445" y="405" fill="#9ecfff" font-family="Segoe UI,sans-serif" font-size="20" font-weight="600">LDA</text>
  <rect x="170" y="498" width="790" height="42" fill="#252526"/>
  <line x1="170" y1="498" x2="960" y2="498" stroke="#3c3c3c"/>
  <text x="198" y="523" fill="#9ecfff" font-family="Segoe UI,sans-serif" font-size="9" font-weight="600">단어 빈도</text>
  <text x="270" y="523" fill="#8a8a8a" font-family="Segoe UI,sans-serif" font-size="9">워드클라우드</text>
  <text x="350" y="523" fill="#8a8a8a" font-family="Segoe UI,sans-serif" font-size="9">LDA</text>
  <text x="420" y="523" fill="#8a8a8a" font-family="Segoe UI,sans-serif" font-size="9">문서 비교</text>
</svg>
