<?xml version="1.0" encoding="UTF-8"?>
<svg xmlns="http://www.w3.org/2000/svg" viewBox="0 0 400 400" role="img" aria-label="R 0 M¤¸ČtÝ  VibeStat-Text">
  <defs>
    <radialGradient id="halo" cx="50%" cy="46%" r="52%">
      <stop offset="0%" stop-color="#276DC3" stop-opacity="0.35"/>
      <stop offset="45%" stop-color="#3b9eff" stop-opacity="0.12"/>
      <stop offset="100%" stop-color="#121216" stop-opacity="0"/>
    </radialGradient>
    <radialGradient id="core" cx="50%" cy="48%" r="38%">
      <stop offset="0%" stop-color="#1e2838"/>
      <stop offset="100%" stop-color="#0d1117"/>
    </radialGradient>
    <linearGradient id="ring" x1="0" y1="0" x2="1" y2="1">
      <stop offset="0%" stop-color="#5aadff"/>
      <stop offset="50%" stop-color="#276DC3"/>
      <stop offset="100%" stop-color="#4ec9b0"/>
    </linearGradient>
    <linearGradient id="rFill" x1="0" y1="0" x2="0" y2="1">
      <stop offset="0%" stop-color="#243044"/>
      <stop offset="100%" stop-color="#141c28"/>
    </linearGradient>
    <clipPath id="rClip">
      <path d="M 158 108 L 158 292 L 192 292 L 192 218 Q 192 178 228 178 Q 264 178 264 208 Q 264 238 228 238 L 204 238 L 252 292 L 228 292 L 188 244 Q 278 236 278 206 Q 278 158 228 158 Q 192 158 192 108 Z"/>
    </clipPath>
    <filter id="glow" x="-30%" y="-30%" width="160%" height="160%">
      <feGaussianBlur stdDeviation="4" result="b"/>
      <feMerge>
        <feMergeNode in="b"/>
        <feMergeNode in="SourceGraphic"/>
      </feMerge>
    </filter>
  </defs>

  <!-- soft circular halo (no square panel) -->
  <circle cx="200" cy="200" r="188" fill="url(#halo)"/>
  <circle cx="200" cy="200" r="152" fill="url(#core)" stroke="url(#ring)" stroke-width="1.2" stroke-opacity="0.45"/>

  <!-- orbit motif -->
  <g fill="none" stroke="#3b9eff" stroke-width="0.9" opacity="0.4">
    <ellipse cx="200" cy="200" rx="132" ry="48" transform="rotate(-22 200 200)"/>
    <ellipse cx="200" cy="200" rx="118" ry="42" transform="rotate(28 200 200)"/>
  </g>
  <circle cx="200" cy="200" r="2.5" fill="#5aadff" opacity="0.75"/>

  <!-- R letter -->
  <path d="M 152 100 L 152 300 L 198 300 L 198 224 Q 198 168 244 168 Q 290 168 290 212 Q 290 258 244 258 L 212 258 L 268 300 L 308 300 L 248 252 Q 308 240 308 204 Q 308 148 244 148 Q 198 148 198 100 Z"
        fill="url(#rFill)" stroke="url(#ring)" stroke-width="2.2" stroke-linejoin="round" filter="url(#glow)"/>

  <!-- analysis inside R -->
  <g clip-path="url(#rClip)">
    <g opacity="0.85">
      <line x1="198" y1="132" x2="238" y2="152" stroke="#4ec9b0" stroke-width="1.1"/>
      <line x1="238" y1="152" x2="262" y2="140" stroke="#5aadff" stroke-width="1.1"/>
      <line x1="212" y1="168" x2="248" y2="188" stroke="#9ecfff" stroke-width="1"/>
      <circle cx="198" cy="132" r="4" fill="#4ec9b0"/>
      <circle cx="238" cy="152" r="3.5" fill="#5aadff"/>
      <circle cx="262" cy="140" r="3" fill="#9ecfff"/>
      <circle cx="248" cy="188" r="3.5" fill="#4ec9b0"/>
    </g>
    <text x="178" y="218" fill="#5aadff" font-family="Segoe UI,sans-serif" font-size="16" font-weight="700">HÄ</text>
    <text x="228" y="212" fill="#4ec9b0" font-family="Segoe UI,sans-serif" font-size="12" font-weight="600">LDA</text>
    <text x="248" y="232" fill="#9ecfff" font-family="Segoe UI,sans-serif" font-size="10">T|¤</text>
    <rect x="188" y="252" width="10" height="28" rx="2" fill="#276DC3" opacity="0.75"/>
    <rect x="202" y="244" width="10" height="36" rx="2" fill="#3b9eff" opacity="0.8"/>
    <rect x="216" y="236" width="10" height="44" rx="2" fill="#4ec9b0" opacity="0.75"/>
  </g>

  <!-- floating chips around circle -->
  <g font-family="Segoe UI,sans-serif">
    <g transform="translate(52 118)">
      <rect width="72" height="24" rx="12" fill="rgba(59,158,255,0.14)" stroke="rgba(59,158,255,0.32)"/>
      <text x="36" y="16" text-anchor="middle" fill="#9ecfff" font-size="10" font-weight="600">ĚÜt|°Ü</text>
    </g>
    <g transform="translate(268 96)">
      <rect width="64" height="24" rx="12" fill="rgba(78,201,176,0.12)" stroke="rgba(78,201,176,0.28)"/>
      <text x="32" y="16" text-anchor="middle" fill="#4ec9b0" font-size="10" font-weight="600">8 DP</text>
    </g>
    <g transform="translate(288 228)">
      <rect width="56" height="24" rx="12" fill="rgba(158,207,255,0.1)" stroke="rgba(158,207,255,0.25)"/>
      <text x="28" y="16" text-anchor="middle" fill="#c8e4ff" font-size="10" font-weight="600">$¸Ěl</text>
    </g>
    <g transform="translate(48 248)">
      <rect width="52" height="24" rx="12" fill="rgba(59,158,255,0.1)" stroke="rgba(59,158,255,0.22)"/>
      <text x="26" y="16" text-anchor="middle" fill="#7eb8ff" font-size="10" font-weight="600">TF-IDF</text>
    </g>
  </g>

  <!-- dashed connectors -->
  <g stroke="#3b9eff" stroke-width="0.7" opacity="0.22" stroke-dasharray="3 4" fill="none">
    <path d="M 124 130 Q 150 168 168 188"/>
    <path d="M 276 108 Q 252 148 248 168"/>
    <path d="M 300 240 Q 268 220 248 210"/>
    <path d="M 100 260 Q 140 230 168 210"/>
  </g>

  <text x="200" y="348" text-anchor="middle" fill="#7a8494" font-family="Segoe UI,sans-serif" font-size="10" letter-spacing="0.08em">VIBESTAT · R TEXT MINING</text>
</svg>
